<svg xmlns="http://www.w3.org/2000/svg" xmlns:xlink="http://www.w3.org/1999/xlink" width="2048" zoomAndPan="magnify" viewBox="0 0 1536 1535.999932" height="2048" preserveAspectRatio="xMidYMid meet" version="1.0"><defs><clipPath id="43d1704452"><path d="M 64 64 L 1460 64 L 1460 1460 L 64 1460 Z M 64 64 " clip-rule="nonzero"/></clipPath><clipPath id="91ba495042"><path d="M 192 768 C 192 449.882812 449.882812 192 768 192 C 846.769531 192 921.863281 207.816406 990.257812 236.453125 C 949.445312 228.285156 907.226562 224 864 224 C 510.539062 224 224 510.539062 224 864 C 224 907.226562 228.285156 949.445312 236.453125 990.257812 C 207.816406 921.863281 192 846.769531 192 768 Z M 768 64 C 379.191406 64 64 379.191406 64 768 C 64 1109.332031 306.847656 1393.796875 629.15625 1458.296875 C 661.402344 1464.753906 693.292969 1445.722656 702.910156 1414.273438 C 712.539062 1382.828125 696.769531 1349.210938 666.433594 1336.511719 C 481.632812 1259.136719 352 1076.632812 352 864 C 352 581.230469 581.230469 352 864 352 C 1076.632812 352 1259.136719 481.632812 1336.511719 666.433594 C 1349.210938 696.769531 1382.828125 712.539062 1414.273438 702.910156 C 1445.722656 693.292969 1464.753906 661.402344 1458.296875 629.15625 C 1393.796875 306.847656 1109.332031 64 768 64 Z M 576 896 C 576 729.582031 703.039062 592.832031 865.425781 577.441406 C 844.160156 614.75 832 657.9375 832 704 C 832 845.382812 946.617188 960 1088 960 C 1134.0625 960 1177.25 947.839844 1214.558594 926.574219 C 1199.167969 1088.960938 1062.417969 1216 896 1216 C 719.269531 1216 576 1072.730469 576 896 Z M 896 448 C 648.574219 448 448 648.574219 448 896 C 448 1143.425781 648.574219 1344 896 1344 C 1143.425781 1344 1344 1143.425781 1344 896 C 1344 850.195312 1337.105469 805.882812 1324.25 764.101562 C 1316.421875 738.664062 1293.664062 720.722656 1267.097656 719.054688 C 1240.53125 717.375 1215.707031 732.328125 1204.75 756.589844 C 1184.621094 801.175781 1139.839844 832 1088 832 C 1017.304688 832 960 774.695312 960 704 C 960 652.160156 990.824219 607.382812 1035.410156 587.25 C 1059.671875 576.296875 1074.625 551.46875 1072.945312 524.902344 C 1071.277344 498.335938 1053.335938 475.578125 1027.898438 467.75 C 986.117188 454.894531 941.804688 448 896 448 Z M 896 448 " clip-rule="evenodd"/></clipPath><linearGradient x1="11.903" gradientTransform="matrix(63.999997, 0, 0, 63.999997, 0.00003385, -0.00002)" y1="1" x2="11.903" gradientUnits="userSpaceOnUse" y2="22.886802" id="9efdb6e0fa"><stop stop-opacity="1" stop-color="rgb(10.998535%, 10.998535%, 10.198975%)" offset="0"/><stop stop-opacity="1" stop-color="rgb(10.998535%, 10.998535%, 10.198975%)" offset="0.5"/><stop stop-opacity="1" stop-color="rgb(10.998535%, 10.998535%, 10.198975%)" offset="0.5625"/><stop stop-opacity="1" stop-color="rgb(10.929871%, 10.929871%, 10.136414%)" offset="0.59375"/><stop stop-opacity="1" stop-color="rgb(10.757446%, 10.757446%, 9.97467%)" offset="0.601562"/><stop stop-opacity="1" stop-color="rgb(10.546875%, 10.546875%, 9.779358%)" offset="0.609375"/><stop stop-opacity="1" stop-color="rgb(10.336304%, 10.336304%, 9.584045%)" offset="0.617188"/><stop stop-opacity="1" stop-color="rgb(10.125732%, 10.125732%, 9.388733%)" offset="0.625"/><stop stop-opacity="1" stop-color="rgb(9.913635%, 9.913635%, 9.19342%)" offset="0.632812"/><stop stop-opacity="1" stop-color="rgb(9.703064%, 9.703064%, 8.998108%)" offset="0.640625"/><stop stop-opacity="1" stop-color="rgb(9.492493%, 9.492493%, 8.802795%)" offset="0.648438"/><stop stop-opacity="1" stop-color="rgb(9.281921%, 9.281921%, 8.605957%)" offset="0.65625"/><stop stop-opacity="1" stop-color="rgb(9.07135%, 9.07135%, 8.410645%)" offset="0.664062"/><stop stop-opacity="1" stop-color="rgb(8.859253%, 8.859253%, 8.215332%)" offset="0.671875"/><stop stop-opacity="1" stop-color="rgb(8.648682%, 8.648682%, 8.02002%)" offset="0.679688"/><stop stop-opacity="1" stop-color="rgb(8.43811%, 8.43811%, 7.824707%)" offset="0.6875"/><stop stop-opacity="1" stop-color="rgb(8.227539%, 8.227539%, 7.629395%)" offset="0.695312"/><stop stop-opacity="1" stop-color="rgb(8.016968%, 8.016968%, 7.434082%)" offset="0.703125"/><stop stop-opacity="1" stop-color="rgb(7.804871%, 7.804871%, 7.237244%)" offset="0.710938"/><stop stop-opacity="1" stop-color="rgb(7.594299%, 7.594299%, 7.041931%)" offset="0.71875"/><stop stop-opacity="1" stop-color="rgb(7.383728%, 7.383728%, 6.846619%)" offset="0.726562"/><stop stop-opacity="1" stop-color="rgb(7.173157%, 7.173157%, 6.651306%)" offset="0.734375"/><stop stop-opacity="1" stop-color="rgb(6.962585%, 6.962585%, 6.455994%)" offset="0.742188"/><stop stop-opacity="1" stop-color="rgb(6.752014%, 6.752014%, 6.260681%)" offset="0.75"/><stop stop-opacity="1" stop-color="rgb(6.539917%, 6.539917%, 6.065369%)" offset="0.757812"/><stop stop-opacity="1" stop-color="rgb(6.329346%, 6.329346%, 5.86853%)" offset="0.765625"/><stop stop-opacity="1" stop-color="rgb(6.118774%, 6.118774%, 5.673218%)" offset="0.773438"/><stop stop-opacity="1" stop-color="rgb(5.908203%, 5.908203%, 5.477905%)" offset="0.78125"/><stop stop-opacity="1" stop-color="rgb(5.697632%, 5.697632%, 5.282593%)" offset="0.789062"/><stop stop-opacity="1" stop-color="rgb(5.485535%, 5.485535%, 5.08728%)" offset="0.796875"/><stop stop-opacity="1" stop-color="rgb(5.274963%, 5.274963%, 4.891968%)" offset="0.804688"/><stop stop-opacity="1" stop-color="rgb(5.064392%, 5.064392%, 4.696655%)" offset="0.8125"/><stop stop-opacity="1" stop-color="rgb(4.853821%, 4.853821%, 4.499817%)" offset="0.820312"/><stop stop-opacity="1" stop-color="rgb(4.64325%, 4.64325%, 4.304504%)" offset="0.828125"/><stop stop-opacity="1" stop-color="rgb(4.431152%, 4.431152%, 4.109192%)" offset="0.835938"/><stop stop-opacity="1" stop-color="rgb(4.220581%, 4.220581%, 3.913879%)" offset="0.84375"/><stop stop-opacity="1" stop-color="rgb(4.01001%, 4.01001%, 3.718567%)" offset="0.851562"/><stop stop-opacity="1" stop-color="rgb(3.799438%, 3.799438%, 3.523254%)" offset="0.859375"/><stop stop-opacity="1" stop-color="rgb(3.588867%, 3.588867%, 3.327942%)" offset="0.867188"/><stop stop-opacity="1" stop-color="rgb(3.37677%, 3.37677%, 3.131104%)" offset="0.875"/><stop stop-opacity="1" stop-color="rgb(3.166199%, 3.166199%, 2.935791%)" offset="0.882812"/><stop stop-opacity="1" stop-color="rgb(2.955627%, 2.955627%, 2.740479%)" offset="0.890625"/><stop stop-opacity="1" stop-color="rgb(2.745056%, 2.745056%, 2.545166%)" offset="0.898438"/><stop stop-opacity="1" stop-color="rgb(2.534485%, 2.534485%, 2.349854%)" offset="0.90625"/><stop stop-opacity="1" stop-color="rgb(2.322388%, 2.322388%, 2.154541%)" offset="0.914063"/><stop stop-opacity="1" stop-color="rgb(2.111816%, 2.111816%, 1.959229%)" offset="0.921875"/><stop stop-opacity="1" stop-color="rgb(1.901245%, 1.901245%, 1.76239%)" offset="0.929688"/><stop stop-opacity="1" stop-color="rgb(1.690674%, 1.690674%, 1.567078%)" offset="0.9375"/><stop stop-opacity="1" stop-color="rgb(1.480103%, 1.480103%, 1.371765%)" offset="0.945313"/><stop stop-opacity="1" stop-color="rgb(1.269531%, 1.269531%, 1.176453%)" offset="0.953125"/><stop stop-opacity="1" stop-color="rgb(1.057434%, 1.057434%, 0.98114%)" offset="0.960938"/><stop stop-opacity="1" stop-color="rgb(0.846863%, 0.846863%, 0.785828%)" offset="0.96875"/><stop stop-opacity="1" stop-color="rgb(0.636292%, 0.636292%, 0.590515%)" offset="0.976562"/><stop stop-opacity="1" stop-color="rgb(0.42572%, 0.42572%, 0.393677%)" offset="0.984375"/><stop stop-opacity="1" stop-color="rgb(0.160217%, 0.160217%, 0.14801%)" offset="1"/></linearGradient></defs><g clip-path="url(#43d1704452)"><g clip-path="url(#91ba495042)"><path fill="url(#9efdb6e0fa)" d="M 64 64 L 64 1464.753906 L 1464.753906 1464.753906 L 1464.753906 64 Z M 64 64 " fill-rule="nonzero"/></g></g></svg>