<svg xmlns="http://www.w3.org/2000/svg" xmlns:xlink="http://www.w3.org/1999/xlink" width="2048" zoomAndPan="magnify" viewBox="0 0 1536 1535.999932" height="2048" preserveAspectRatio="xMidYMid meet" version="1.0"><defs><g/><clipPath id="2801e1040d"><path d="M 182.089844 1314.449219 L 1353.589844 1314.449219 L 1353.589844 1495.199219 L 182.089844 1495.199219 Z M 182.089844 1314.449219 " clip-rule="nonzero"/></clipPath></defs><g clip-path="url(#2801e1040d)"><path fill="#000000" d="M 255.667969 1314.445312 L 1280.328125 1314.445312 C 1281.527344 1314.445312 1282.730469 1314.476562 1283.929688 1314.535156 C 1285.128906 1314.59375 1286.328125 1314.679688 1287.523438 1314.800781 C 1288.71875 1314.917969 1289.910156 1315.0625 1291.097656 1315.238281 C 1292.285156 1315.417969 1293.46875 1315.621094 1294.648438 1315.855469 C 1295.828125 1316.089844 1297 1316.355469 1298.164062 1316.644531 C 1299.328125 1316.9375 1300.484375 1317.257812 1301.636719 1317.605469 C 1302.785156 1317.957031 1303.925781 1318.332031 1305.058594 1318.738281 C 1306.1875 1319.140625 1307.308594 1319.574219 1308.417969 1320.035156 C 1309.527344 1320.492188 1310.625 1320.980469 1311.710938 1321.492188 C 1312.796875 1322.007812 1313.871094 1322.546875 1314.929688 1323.113281 C 1315.988281 1323.679688 1317.035156 1324.273438 1318.066406 1324.890625 C 1319.09375 1325.507812 1320.109375 1326.148438 1321.109375 1326.816406 C 1322.109375 1327.484375 1323.089844 1328.175781 1324.054688 1328.890625 C 1325.019531 1329.605469 1325.964844 1330.347656 1326.894531 1331.109375 C 1327.824219 1331.871094 1328.734375 1332.65625 1329.625 1333.460938 C 1330.511719 1334.269531 1331.382812 1335.097656 1332.234375 1335.945312 C 1333.082031 1336.796875 1333.910156 1337.664062 1334.71875 1338.554688 C 1335.523438 1339.445312 1336.308594 1340.355469 1337.070312 1341.28125 C 1337.832031 1342.210938 1338.570312 1343.160156 1339.285156 1344.125 C 1340.003906 1345.089844 1340.695312 1346.070312 1341.359375 1347.070312 C 1342.027344 1348.066406 1342.671875 1349.082031 1343.289062 1350.113281 C 1343.90625 1351.144531 1344.5 1352.1875 1345.066406 1353.246094 C 1345.632812 1354.308594 1346.171875 1355.378906 1346.683594 1356.464844 C 1347.199219 1357.550781 1347.683594 1358.648438 1348.144531 1359.757812 C 1348.605469 1360.871094 1349.035156 1361.988281 1349.441406 1363.121094 C 1349.847656 1364.253906 1350.222656 1365.394531 1350.570312 1366.542969 C 1350.921875 1367.691406 1351.242188 1368.847656 1351.53125 1370.015625 C 1351.824219 1371.179688 1352.085938 1372.351562 1352.320312 1373.53125 C 1352.554688 1374.707031 1352.761719 1375.890625 1352.9375 1377.078125 C 1353.113281 1378.269531 1353.261719 1379.460938 1353.378906 1380.65625 C 1353.496094 1381.851562 1353.585938 1383.050781 1353.644531 1384.25 C 1353.703125 1385.449219 1353.730469 1386.648438 1353.730469 1387.851562 L 1353.730469 1422.144531 C 1353.730469 1423.34375 1353.703125 1424.542969 1353.644531 1425.746094 C 1353.585938 1426.945312 1353.496094 1428.140625 1353.378906 1429.339844 C 1353.261719 1430.535156 1353.113281 1431.726562 1352.9375 1432.914062 C 1352.761719 1434.101562 1352.554688 1435.285156 1352.320312 1436.464844 C 1352.085938 1437.640625 1351.824219 1438.8125 1351.53125 1439.980469 C 1351.242188 1441.144531 1350.921875 1442.300781 1350.570312 1443.449219 C 1350.222656 1444.601562 1349.847656 1445.742188 1349.441406 1446.871094 C 1349.035156 1448.003906 1348.605469 1449.125 1348.144531 1450.234375 C 1347.683594 1451.34375 1347.199219 1452.441406 1346.683594 1453.527344 C 1346.171875 1454.613281 1345.632812 1455.6875 1345.066406 1456.746094 C 1344.5 1457.804688 1343.90625 1458.851562 1343.289062 1459.878906 C 1342.671875 1460.910156 1342.027344 1461.925781 1341.363281 1462.925781 C 1340.695312 1463.921875 1340.003906 1464.90625 1339.285156 1465.871094 C 1338.570312 1466.835938 1337.832031 1467.78125 1337.070312 1468.710938 C 1336.308594 1469.640625 1335.523438 1470.546875 1334.71875 1471.4375 C 1333.910156 1472.328125 1333.082031 1473.199219 1332.234375 1474.046875 C 1331.382812 1474.898438 1330.511719 1475.726562 1329.625 1476.53125 C 1328.734375 1477.339844 1327.824219 1478.125 1326.894531 1478.886719 C 1325.964844 1479.648438 1325.019531 1480.386719 1324.054688 1481.101562 C 1323.089844 1481.816406 1322.109375 1482.507812 1321.109375 1483.175781 C 1320.109375 1483.84375 1319.09375 1484.488281 1318.066406 1485.105469 C 1317.035156 1485.722656 1315.988281 1486.3125 1314.929688 1486.878906 C 1313.871094 1487.445312 1312.796875 1487.988281 1311.710938 1488.5 C 1310.625 1489.015625 1309.527344 1489.5 1308.417969 1489.960938 C 1307.308594 1490.421875 1306.1875 1490.851562 1305.058594 1491.257812 C 1303.925781 1491.660156 1302.785156 1492.039062 1301.636719 1492.386719 C 1300.484375 1492.734375 1299.328125 1493.054688 1298.164062 1493.347656 C 1297 1493.640625 1295.828125 1493.902344 1294.648438 1494.136719 C 1293.46875 1494.371094 1292.285156 1494.578125 1291.097656 1494.753906 C 1289.910156 1494.929688 1288.71875 1495.078125 1287.523438 1495.195312 C 1286.328125 1495.3125 1285.128906 1495.402344 1283.929688 1495.460938 C 1282.730469 1495.519531 1281.527344 1495.546875 1280.328125 1495.546875 L 255.667969 1495.546875 C 254.464844 1495.546875 253.265625 1495.519531 252.066406 1495.460938 C 250.863281 1495.402344 249.667969 1495.3125 248.472656 1495.195312 C 247.277344 1495.078125 246.085938 1494.929688 244.894531 1494.753906 C 243.707031 1494.578125 242.523438 1494.371094 241.347656 1494.136719 C 240.167969 1493.902344 238.996094 1493.640625 237.832031 1493.347656 C 236.664062 1493.054688 235.507812 1492.734375 234.359375 1492.386719 C 233.207031 1492.039062 232.066406 1491.660156 230.9375 1491.257812 C 229.804688 1490.851562 228.6875 1490.417969 227.574219 1489.960938 C 226.464844 1489.5 225.367188 1489.011719 224.28125 1488.5 C 223.195312 1487.988281 222.125 1487.445312 221.0625 1486.878906 C 220.003906 1486.3125 218.960938 1485.722656 217.929688 1485.105469 C 216.898438 1484.488281 215.882812 1483.84375 214.886719 1483.175781 C 213.886719 1482.507812 212.902344 1481.816406 211.9375 1481.101562 C 210.972656 1480.386719 210.027344 1479.648438 209.097656 1478.886719 C 208.171875 1478.125 207.261719 1477.339844 206.371094 1476.53125 C 205.480469 1475.726562 204.609375 1474.898438 203.761719 1474.046875 C 202.910156 1473.199219 202.082031 1472.328125 201.277344 1471.4375 C 200.46875 1470.546875 199.6875 1469.640625 198.925781 1468.710938 C 198.160156 1467.78125 197.421875 1466.835938 196.707031 1465.871094 C 195.992188 1464.90625 195.300781 1463.921875 194.632812 1462.925781 C 193.964844 1461.925781 193.324219 1460.910156 192.707031 1459.878906 C 192.085938 1458.851562 191.496094 1457.804688 190.929688 1456.746094 C 190.363281 1455.6875 189.824219 1454.613281 189.308594 1453.527344 C 188.796875 1452.441406 188.308594 1451.34375 187.847656 1450.234375 C 187.390625 1449.125 186.957031 1448.003906 186.550781 1446.871094 C 186.148438 1445.742188 185.769531 1444.601562 185.421875 1443.453125 C 185.074219 1442.300781 184.753906 1441.144531 184.460938 1439.980469 C 184.167969 1438.8125 183.90625 1437.640625 183.671875 1436.464844 C 183.4375 1435.285156 183.234375 1434.101562 183.054688 1432.914062 C 182.878906 1431.726562 182.734375 1430.535156 182.613281 1429.339844 C 182.496094 1428.140625 182.410156 1426.945312 182.351562 1425.746094 C 182.292969 1424.542969 182.261719 1423.34375 182.261719 1422.144531 L 182.261719 1387.851562 C 182.261719 1386.648438 182.292969 1385.449219 182.351562 1384.25 C 182.410156 1383.050781 182.496094 1381.851562 182.613281 1380.65625 C 182.734375 1379.460938 182.878906 1378.269531 183.054688 1377.078125 C 183.234375 1375.890625 183.4375 1374.707031 183.671875 1373.53125 C 183.90625 1372.351562 184.167969 1371.179688 184.460938 1370.015625 C 184.753906 1368.847656 185.074219 1367.691406 185.421875 1366.542969 C 185.769531 1365.394531 186.148438 1364.253906 186.550781 1363.121094 C 186.957031 1361.988281 187.390625 1360.871094 187.847656 1359.757812 C 188.308594 1358.648438 188.796875 1357.550781 189.308594 1356.464844 C 189.824219 1355.378906 190.363281 1354.308594 190.929688 1353.246094 C 191.496094 1352.1875 192.085938 1351.144531 192.707031 1350.113281 C 193.324219 1349.082031 193.964844 1348.066406 194.632812 1347.070312 C 195.300781 1346.070312 195.992188 1345.089844 196.707031 1344.125 C 197.421875 1343.160156 198.160156 1342.210938 198.925781 1341.28125 C 199.6875 1340.355469 200.46875 1339.445312 201.277344 1338.554688 C 202.082031 1337.664062 202.910156 1336.796875 203.761719 1335.945312 C 204.609375 1335.097656 205.480469 1334.269531 206.371094 1333.460938 C 207.261719 1332.65625 208.171875 1331.871094 209.097656 1331.109375 C 210.027344 1330.347656 210.972656 1329.605469 211.9375 1328.890625 C 212.902344 1328.175781 213.886719 1327.484375 214.886719 1326.816406 C 215.882812 1326.148438 216.898438 1325.507812 217.929688 1324.890625 C 218.960938 1324.273438 220.003906 1323.679688 221.0625 1323.113281 C 222.125 1322.546875 223.195312 1322.007812 224.28125 1321.492188 C 225.367188 1320.980469 226.464844 1320.492188 227.574219 1320.035156 C 228.6875 1319.574219 229.804688 1319.140625 230.9375 1318.738281 C 232.066406 1318.332031 233.207031 1317.957031 234.359375 1317.605469 C 235.507812 1317.257812 236.664062 1316.9375 237.832031 1316.644531 C 238.996094 1316.355469 240.167969 1316.089844 241.347656 1315.855469 C 242.523438 1315.621094 243.707031 1315.417969 244.894531 1315.242188 C 246.085938 1315.0625 247.277344 1314.917969 248.472656 1314.800781 C 249.667969 1314.679688 250.863281 1314.59375 252.066406 1314.535156 C 253.265625 1314.476562 254.464844 1314.445312 255.667969 1314.445312 Z M 255.667969 1314.445312 " fill-opacity="1" fill-rule="nonzero"/></g><g fill="#000000" fill-opacity="1"><g transform="translate(138.972384, 1207.322376)"><g><path d="M 984.414062 -28.363281 L 1029.464844 -1.667969 L 1076.183594 3.335938 L 1112.886719 -8.34375 L 1129.574219 -41.710938 L 1132.910156 -650.714844 L 1127.90625 -679.078125 L 1127.90625 -844.261719 L 1132.910156 -884.304688 L 1127.90625 -1116.226562 L 1111.21875 -1149.59375 L 1077.851562 -1167.949219 L 870.957031 -1166.28125 L 839.253906 -1147.925781 L 820.902344 -1112.886719 L 819.234375 -1077.851562 L 824.238281 -1051.152344 L 819.234375 -981.078125 L 822.570312 -944.371094 L 819.234375 -645.710938 L 809.222656 -617.34375 L 784.195312 -629.023438 L 665.730469 -747.488281 L 619.011719 -784.195312 L 290.320312 -1116.226562 L 265.292969 -1136.246094 L 226.914062 -1156.269531 L 176.859375 -1167.949219 L 138.484375 -1151.265625 L 123.46875 -1119.5625 L 123.46875 -614.007812 L 121.800781 -585.644531 L 125.136719 -517.234375 L 120.132812 -488.871094 L 123.46875 -215.238281 L 120.132812 -183.535156 L 123.46875 -43.382812 L 138.484375 -11.679688 L 173.523438 0 L 241.933594 3.335938 L 278.640625 0 L 343.710938 5.003906 L 378.75 3.335938 L 412.121094 -13.347656 L 428.804688 -65.070312 L 430.472656 -487.203125 L 433.808594 -520.570312 L 445.488281 -548.9375 L 467.179688 -540.59375 L 488.871094 -512.230469 L 607.332031 -398.769531 L 629.023438 -373.742188 L 657.386719 -355.390625 L 916.003906 -98.441406 L 959.386719 -50.054688 Z M 984.414062 -28.363281 "/></g></g></g></svg>